<?xml version="1.0" encoding="UTF-8" standalone="no"?>
<!-- Created with Inkscape (http://www.inkscape.org/) -->

<svg
   xmlns:dc="http://purl.org/dc/elements/1.1/"
   xmlns:cc="http://creativecommons.org/ns#"
   xmlns:rdf="http://www.w3.org/1999/02/22-rdf-syntax-ns#"
   xmlns:svg="http://www.w3.org/2000/svg"
   xmlns="http://www.w3.org/2000/svg"
   xmlns:sodipodi="http://sodipodi.sourceforge.net/DTD/sodipodi-0.dtd"
   xmlns:inkscape="http://www.inkscape.org/namespaces/inkscape"
   width="256"
   height="256"
   id="svg2"
   version="1.1"
   inkscape:version="0.48.4 r9939"
   sodipodi:docname="RobotWallCrawler.svg">
  <defs
     id="defs4" />
  <sodipodi:namedview
     id="base"
     pagecolor="#ffffff"
     bordercolor="#666666"
     borderopacity="1.0"
     inkscape:pageopacity="0.0"
     inkscape:pageshadow="2"
     inkscape:zoom="0.98994949"
     inkscape:cx="328.28918"
     inkscape:cy="160.70667"
     inkscape:document-units="px"
     inkscape:current-layer="layer1"
     showgrid="false"
     inkscape:window-width="1366"
     inkscape:window-height="719"
     inkscape:window-x="0"
     inkscape:window-y="25"
     inkscape:window-maximized="1" />
  <metadata
     id="metadata7">
    <rdf:RDF>
      <cc:Work
         rdf:about="">
        <dc:format>image/svg+xml</dc:format>
        <dc:type
           rdf:resource="http://purl.org/dc/dcmitype/StillImage" />
        <dc:title></dc:title>
      </cc:Work>
    </rdf:RDF>
  </metadata>
  <g
     inkscape:label="Layer 1"
     inkscape:groupmode="layer"
     id="layer1"
     transform="translate(0,-796.36218)">
    <flowRoot
       xml:space="preserve"
       id="flowRoot2993"
       style="font-size:40px;font-style:normal;font-weight:normal;line-height:125%;letter-spacing:0px;word-spacing:0px;fill:#000000;fill-opacity:1;stroke:none;font-family:Sans"
       transform="matrix(1,0,0,1.1446744,0,-117.65863)"><flowRegion
         id="flowRegion2995"><rect
           id="rect2997"
           width="237.14285"
           height="248.57143"
           x="277.14285"
           y="146.28572" /></flowRegion><flowPara
         id="flowPara2999" /></flowRoot>    <path
       style="fill:#000000"
       d="m 145.41064,1028.4816 c -7.00412,-1.7312 -13.07795,-31.4609 -8.94579,-43.78706 1.65097,-4.92478 0.11113,-7.16982 -4.94724,-7.2124 -4.03943,-0.0361 -11.79378,-1.42098 -17.2319,-3.08219 -9.57832,-2.92585 -9.66149,-2.76126 -2.65913,5.26393 4.76578,5.46197 6.34122,11.52452 4.62439,17.79554 -1.43215,5.23118 -3.57586,14.20478 -4.76388,19.94138 -1.77098,8.5516 -4.38452,10.1825 -14.511938,9.0545 -9.521433,-1.0605 -12.653625,-3.8157 -13.668484,-12.0225 -2.1287,-17.21445 2.698139,-31.53498 11.735789,-34.81841 4.632846,-1.6832 6.648353,-4.36549 4.478883,-5.96074 -2.169478,-1.59527 -5.065129,-7.0188 -6.434785,-12.05232 -1.369658,-5.03346 -7.763113,-15.76001 -14.207666,-23.83667 -6.444559,-8.07669 -12.87795,-21.76636 -14.29646,-30.42149 -1.5182,-9.26366 -4.278833,-14.53403 -6.711473,-12.81308 -2.368568,1.67567 -2.957352,0.74713 -1.379469,-2.17534 1.514139,-2.80432 -0.03166,-9.96235 -3.433648,-15.90672 -6.422364,-11.21991 -4.554616,-25.67465 3.314769,-25.65274 2.486312,0.009 11.639603,-4.00098 20.340599,-8.90646 8.701005,-4.90543 24.718753,-10.25439 35.594993,-11.88649 15.3613,-2.3052 18.00955,-3.78286 11.865,-6.62051 -6.67766,-3.08393 -6.06151,-3.69957 3.95499,-3.95184 6.92536,-0.17429 19.27447,5.33933 29.6625,13.24398 9.78863,7.44854 20.79217,13.55151 24.45224,13.56219 8.52711,0.0227 13.11442,16.37311 8.09633,28.85376 -9.93913,24.71988 -12.42337,34.54622 -8.73376,34.54622 2.12864,0 3.87021,-2.07865 3.87021,-4.61917 0,-7.56969 29.84921,12.19398 40.69011,26.94159 13.3792,18.20061 21.36687,45.38184 14.71844,50.0853 -2.7584,1.95142 -3.76422,7.3041 -2.33859,12.44565 1.37583,4.96192 0.69617,14.45699 -1.51038,21.10019 -3.84264,11.5692 -4.88924,11.9524 -24.81946,9.0899 -23.11062,-3.3193 -24.7222,-4.3726 -28.47541,-18.6092 -1.80124,-6.8324 -0.17601,-12.75715 5.18219,-18.89047 5.95488,-6.81641 6.55273,-9.48662 2.52045,-11.25779 -2.90731,-1.2771 -7.51558,-13.72604 -10.24061,-27.66437 -5.48726,-28.06713 -6.44808,-27.88484 -21.14204,4.01009 -10.25257,22.25426 -10.25307,22.26127 -2.30732,30.73486 10.4818,11.17802 11.19099,42.39648 1.02636,45.17838 -3.80668,1.0419 -9.82262,1.1771 -13.36881,0.3007 z m 63.79506,-28.83606 c 0,-2.48996 -1.77974,-3.26814 -3.95502,-1.72924 -2.17523,1.53889 -3.95498,4.8352 -3.95498,7.3251 0,2.49 1.77975,3.2682 3.95498,1.7293 2.17528,-1.5389 3.95502,-4.8352 3.95502,-7.32516 z M 131.09446,861.36602 c -2.71907,-1.2559 -7.16843,-1.2559 -9.88748,0 -2.71907,1.25587 -0.49438,2.28341 4.94373,2.28341 5.43812,0 7.6628,-1.02754 4.94375,-2.28341 z M 26.286961,1021.8983 c -11.993022,-3.6463 -14.83125,-6.6161 -14.83125,-15.5194 0,-6.0557 2.637037,-12.16867 5.860086,-13.58445 4.351684,-1.91147 4.860692,-4.71153 1.977496,-10.87823 -5.906277,-12.63258 -4.70542,-22.53153 5.895247,-48.59541 12.392201,-30.46888 24.678523,-37.18528 34.855768,-19.05417 9.200594,16.39117 13.480814,56.30076 6.997226,65.24324 -2.710994,3.73915 -3.658493,10.8586 -2.162953,16.25228 1.46375,5.27914 1.576861,14.54444 0.251544,20.58964 -2.682797,12.2355 -12.316626,13.611 -38.843043,5.5465 z"
       id="path3016"
       inkscape:connector-curvature="0" />
    <path
       style="fill:#008000"
       d="m 147.55447,1022.3209 c -7.00413,-1.7313 -13.07795,-31.46095 -8.94577,-43.78714 1.65095,-4.92475 0.11111,-7.16979 -4.94725,-7.21237 -4.03944,-0.0361 -11.79379,-1.42098 -17.2319,-3.0822 -9.57832,-2.92586 -9.6615,-2.76125 -2.65913,5.26392 4.76578,5.46199 6.34122,11.52452 4.6244,17.79556 -1.43214,5.23116 -3.57587,14.20483 -4.76388,19.94143 -1.771,8.5517 -4.38454,10.1824 -14.511962,9.0543 -9.521423,-1.0605 -12.65362,-3.8155 -13.668475,-12.0224 -2.128698,-17.21441 2.69814,-31.53493 11.73579,-34.81837 4.632847,-1.68319 6.648357,-4.36548 4.478877,-5.96074 -2.169475,-1.59526 -5.065128,-7.01879 -6.434779,-12.05234 -1.369658,-5.03344 -7.763118,-15.75998 -14.207667,-23.83666 -6.444557,-8.07669 -12.877949,-21.76635 -14.296459,-30.42146 -1.5182,-9.26368 -4.278833,-14.53405 -6.711477,-12.81309 -2.368564,1.67566 -2.957347,0.74713 -1.379465,-2.17536 1.514134,-2.8043 -0.03166,-9.96233 -3.433653,-15.90673 -6.42236,-11.2199 -4.554611,-25.67461 3.314769,-25.6527 2.486311,0.009 11.639608,-4.00099 20.340604,-8.90648 8.701006,-4.90542 24.718757,-10.2544 35.594987,-11.8865 15.36132,-2.30517 18.00955,-3.78286 11.86501,-6.62049 -6.67766,-3.08392 -6.06152,-3.69958 3.95498,-3.95183 6.92538,-0.1743 19.27447,5.33931 29.66251,13.24396 9.78862,7.44855 20.79216,13.5515 24.45224,13.56219 8.52711,0.0226 13.11441,16.37312 8.09633,28.85375 -9.93915,24.7199 -12.42338,34.54624 -8.73377,34.54624 2.12864,0 3.87021,-2.07865 3.87021,-4.61918 0,-7.56968 29.84923,12.19397 40.6901,26.94161 13.3792,18.2006 21.36688,45.38183 14.71846,50.08528 -2.75841,1.9514 -3.76421,7.30409 -2.33859,12.44566 1.37582,4.96191 0.69616,14.45694 -1.51038,21.10014 -3.84267,11.5692 -4.88924,11.9525 -24.81946,9.09 -23.11063,-3.3194 -24.7222,-4.3726 -28.47541,-18.60921 -1.80124,-6.83244 -0.17603,-12.75719 5.18218,-18.8905 5.95488,-6.81641 6.55273,-9.48665 2.52047,-11.2578 -2.90732,-1.27709 -7.5156,-13.72604 -10.24061,-27.66438 -5.48728,-28.06711 -6.4481,-27.88485 -21.14206,4.0101 -10.25256,22.25425 -10.25306,22.26126 -2.30732,30.73485 10.4818,11.17802 11.19099,42.39664 1.02636,45.17854 -3.80668,1.0418 -9.82262,1.1769 -13.36881,0.3005 z m 63.79506,-28.8361 c 0,-2.48998 -1.77974,-3.26816 -3.95499,-1.72927 -2.17526,1.5389 -3.95501,4.83518 -3.95501,7.32514 0,2.48993 1.77975,3.26813 3.95501,1.72923 2.17525,-1.53887 3.95499,-4.83518 3.95499,-7.3251 z M 133.23829,855.20525 c -2.71905,-1.25588 -7.16843,-1.25588 -9.88748,0 -2.71907,1.25589 -0.49439,2.28343 4.94373,2.28343 5.43813,0 7.66281,-1.02754 4.94375,-2.28343 z M 28.430795,1015.7375 c -11.993018,-3.6462 -14.83125,-6.616 -14.83125,-15.5194 0,-6.0557 2.637038,-12.16861 5.860086,-13.58439 4.351687,-1.91148 4.860695,-4.71155 1.9775,-10.87824 -5.906279,-12.63259 -4.705425,-22.53152 5.895242,-48.59542 12.392204,-30.46888 24.678525,-37.18527 34.85577,-19.05416 9.200596,16.39118 13.48081,56.30074 6.997222,65.24324 -2.710989,3.73915 -3.658488,10.85859 -2.162948,16.25229 1.463746,5.27912 1.576856,14.54448 0.251539,20.58958 -2.682793,12.2354 -12.316622,13.6111 -38.843041,5.5465 z"
       id="path3016-2"
       inkscape:connector-curvature="0" />
  </g>
</svg>
